<svg width="30" height="30" viewBox="0 0 30 30" fill="none" xmlns="http://www.w3.org/2000/svg">
<path fill-rule="evenodd" clip-rule="evenodd" d="M15 2.09302C7.87168 2.09302 2.09302 7.87168 2.09302 15C2.09302 22.1283 7.87168 27.907 15 27.907C22.1283 27.907 27.907 22.1283 27.907 15C27.907 7.87168 22.1283 2.09302 15 2.09302ZM0 15C0 6.71573 6.71573 0 15 0C23.2843 0 30 6.71573 30 15C30 23.2843 23.2843 30 15 30C6.71573 30 0 23.2843 0 15ZM15 5.5814C15.578 5.5814 16.0465 6.04994 16.0465 6.62791V7.06986C18.3215 7.47721 20.2326 9.18643 20.2326 11.5116C20.2326 12.0896 19.764 12.5581 19.186 12.5581C18.6081 12.5581 18.1395 12.0896 18.1395 11.5116C18.1395 10.3336 16.9207 9.06977 15 9.06977C13.0793 9.06977 11.8605 10.3336 11.8605 11.5116C11.8605 12.6897 13.0793 13.9535 15 13.9535C17.7031 13.9535 20.2326 15.8132 20.2326 18.4884C20.2326 20.8136 18.3215 22.5227 16.0465 22.9302V23.3721C16.0465 23.95 15.578 24.4186 15 24.4186C14.422 24.4186 13.9535 23.95 13.9535 23.3721V22.9302C11.6785 22.5227 9.76744 20.8136 9.76744 18.4884C9.76744 17.9104 10.236 17.4419 10.814 17.4419C11.3919 17.4419 11.8605 17.9104 11.8605 18.4884C11.8605 19.6665 13.0793 20.9302 15 20.9302C16.9207 20.9302 18.1395 19.6665 18.1395 18.4884C18.1395 17.3103 16.9207 16.0465 15 16.0465C12.2969 16.0465 9.76744 14.1868 9.76744 11.5116C9.76744 9.18643 11.6785 7.47721 13.9535 7.06986V6.62791C13.9535 6.04994 14.422 5.5814 15 5.5814Z" fill="#2F68DE"/>
</svg>
