<svg width="27" height="27" viewBox="0 0 27 27" fill="none" xmlns="http://www.w3.org/2000/svg">
<path d="M23.2222 9.98285V19.1489C23.2222 21.5469 23.2222 22.746 22.7681 23.6619C22.3686 24.4676 21.7312 25.1228 20.9472 25.5333C20.0558 26 18.8892 26 16.5556 26H10.4444C8.11089 26 6.94411 26 6.05282 25.5333C5.26881 25.1228 4.63139 24.4676 4.23192 23.6619C3.77778 22.746 3.77778 21.5469 3.77778 19.1489V9.9819M26 13.1542L18.4539 4.53891C16.7376 2.57955 15.8796 1.59987 14.8689 1.23819C13.9814 0.920531 13.0153 0.920602 12.1276 1.23841C11.1171 1.60023 10.2592 2.58005 8.54325 4.53967L1 13.1542M16.2778 13.1542C16.2778 14.7307 15.0342 16.0089 13.5 16.0089C11.9658 16.0089 10.7222 14.7307 10.7222 13.1542C10.7222 11.5776 11.9658 10.2996 13.5 10.2996C15.0342 10.2996 16.2778 11.5776 16.2778 13.1542Z" stroke="#2F68DE" stroke-width="2" stroke-linecap="round" stroke-linejoin="round"/>
</svg>
