<svg width="27" height="30" viewBox="0 0 27 30" fill="none" xmlns="http://www.w3.org/2000/svg">
<path d="M22.7778 21.2461C24.714 22.0688 25.8889 23.1495 25.8889 24.3329C25.8889 26.9102 20.3174 28.9996 13.4444 28.9996C6.57156 28.9996 1 26.9102 1 24.3329C1 23.1495 2.17486 22.0688 4.11111 21.2461" stroke="#2F68DE" stroke-width="2" stroke-linecap="round" stroke-linejoin="round"/>
<path d="M21.2216 9.46913C21.2216 14.2801 13.4438 22.7778 13.4438 22.7778C13.4438 22.7778 5.66602 14.2801 5.66602 9.46913C5.66602 4.65812 9.14825 1 13.4438 1C17.7393 1 21.2216 4.65812 21.2216 9.46913Z" stroke="#2F68DE" stroke-width="2" stroke-linecap="round" stroke-linejoin="round"/>
<path d="M13.4442 10.3338C14.3033 10.3338 14.9998 9.63732 14.9998 8.77821C14.9998 7.9191 14.3033 7.22266 13.4442 7.22266C12.5851 7.22266 11.8887 7.9191 11.8887 8.77821C11.8887 9.63732 12.5851 10.3338 13.4442 10.3338Z" stroke="#2F68DE" stroke-width="2" stroke-linecap="round" stroke-linejoin="round"/>
</svg>
